<mxfile host="app.diagrams.net" modified="2022-07-25T03:36:43.029Z" agent="5.0 (Windows NT 10.0; Win64; x64) AppleWebKit/537.36 (KHTML, like Gecko) Chrome/103.0.5060.134 Safari/537.36 Edg/103.0.1264.71" etag="LZjfidopdIaZnn7LHD2h" version="20.1.2" type="github">
  <diagram id="5cb1daBF80GTj0REnkLk" name="第 1 页">
    <mxGraphModel dx="1038" dy="634" grid="1" gridSize="10" guides="1" tooltips="1" connect="1" arrows="1" fold="1" page="1" pageScale="1" pageWidth="827" pageHeight="1169" math="0" shadow="0">
      <root>
        <mxCell id="0" />
        <mxCell id="1" parent="0" />
        <mxCell id="D6tjtGbjB5FS4-WhxPt_-3" value="" style="edgeStyle=orthogonalEdgeStyle;rounded=0;orthogonalLoop=1;jettySize=auto;html=1;" edge="1" parent="1" source="D6tjtGbjB5FS4-WhxPt_-1" target="D6tjtGbjB5FS4-WhxPt_-2">
          <mxGeometry relative="1" as="geometry" />
        </mxCell>
        <mxCell id="D6tjtGbjB5FS4-WhxPt_-1" value="软件-新人入职" style="ellipse;whiteSpace=wrap;html=1;" vertex="1" parent="1">
          <mxGeometry x="100" y="10" width="120" height="80" as="geometry" />
        </mxCell>
        <mxCell id="D6tjtGbjB5FS4-WhxPt_-5" value="" style="edgeStyle=orthogonalEdgeStyle;rounded=0;orthogonalLoop=1;jettySize=auto;html=1;" edge="1" parent="1" source="D6tjtGbjB5FS4-WhxPt_-2" target="D6tjtGbjB5FS4-WhxPt_-4">
          <mxGeometry relative="1" as="geometry" />
        </mxCell>
        <mxCell id="D6tjtGbjB5FS4-WhxPt_-2" value="申请公司邮箱（钉钉 - 韩轶）" style="whiteSpace=wrap;html=1;" vertex="1" parent="1">
          <mxGeometry x="40" y="120" width="240" height="40" as="geometry" />
        </mxCell>
        <mxCell id="D6tjtGbjB5FS4-WhxPt_-7" value="" style="edgeStyle=orthogonalEdgeStyle;rounded=0;orthogonalLoop=1;jettySize=auto;html=1;" edge="1" parent="1" source="D6tjtGbjB5FS4-WhxPt_-4" target="D6tjtGbjB5FS4-WhxPt_-6">
          <mxGeometry relative="1" as="geometry" />
        </mxCell>
        <mxCell id="D6tjtGbjB5FS4-WhxPt_-4" value="注册Git账号&lt;br&gt;https://192.168.254.57:5757/" style="whiteSpace=wrap;html=1;" vertex="1" parent="1">
          <mxGeometry x="40" y="200" width="240" height="40" as="geometry" />
        </mxCell>
        <mxCell id="D6tjtGbjB5FS4-WhxPt_-9" value="" style="edgeStyle=orthogonalEdgeStyle;rounded=0;orthogonalLoop=1;jettySize=auto;html=1;" edge="1" parent="1" source="D6tjtGbjB5FS4-WhxPt_-6" target="D6tjtGbjB5FS4-WhxPt_-8">
          <mxGeometry relative="1" as="geometry" />
        </mxCell>
        <mxCell id="D6tjtGbjB5FS4-WhxPt_-6" value="注册WIKI账号&lt;br&gt;http://119.29.64.188/" style="whiteSpace=wrap;html=1;" vertex="1" parent="1">
          <mxGeometry x="40" y="280" width="240" height="40" as="geometry" />
        </mxCell>
        <mxCell id="D6tjtGbjB5FS4-WhxPt_-8" value="开通编译服务器账号&lt;br&gt;192.168.254.75" style="whiteSpace=wrap;html=1;" vertex="1" parent="1">
          <mxGeometry x="40" y="360" width="240" height="40" as="geometry" />
        </mxCell>
      </root>
    </mxGraphModel>
  </diagram>
</mxfile>
